<svg width="18" height="18" viewBox="0 0 18 18" fill="none" xmlns="http://www.w3.org/2000/svg">
<path opacity="0.1" d="M1.77423 3C1.45025 3 1.16053 3.20846 1.04813 3.52244C0.935722 3.83643 1.02441 4.18953 1.27039 4.40741L8.49616 10.8074C8.78609 11.0642 9.21391 11.0642 9.50384 10.8074L16.7296 4.40741C16.9756 4.18953 17.0643 3.83643 16.9519 3.52244C16.8395 3.20846 16.5498 3 16.2258 3H1.77423Z" fill="#4D465D"/>
<path fill-rule="evenodd" clip-rule="evenodd" d="M1.1864 7.27938C1.46466 6.94392 1.95341 6.90507 2.27804 7.19261L9 13.1463L15.722 7.19261C16.0466 6.90507 16.5353 6.94392 16.8136 7.27938C17.0919 7.61484 17.0543 8.11988 16.7296 8.40742L9.50384 14.8074C9.21391 15.0642 8.78609 15.0642 8.49616 14.8074L1.27037 8.40742C0.94573 8.11988 0.908134 7.61484 1.1864 7.27938Z" fill="#4D465D"/>
</svg>
